Coordinates
version=1
nRows=20
nColumns=38
inDegrees=no

Units are S.I. units (second, meters, Newtons, ...)
If the header above contains a line with 'inDegrees', this indicates whether rotational values are in degrees (yes) or radians (no).

endheader
time	pelvis_tilt	pelvis_list	pelvis_rotation	pelvis_tx	pelvis_ty	pelvis_tz	hip_flexion_r	hip_adduction_r	hip_rotation_r	knee_angle_r	ankle_angle_r	subtalar_angle_r	mtp_angle_r	hip_flexion_l	hip_adduction_l	hip_rotation_l	knee_angle_l	ankle_angle_l	subtalar_angle_l	mtp_angle_l	lumbar_extension	lumbar_bending	lumbar_rotation	arm_flex_r	arm_add_r	arm_rot_r	elbow_flex_r	pro_sup_r	wrist_flex_r	wrist_dev_r	arm_flex_l	arm_add_l	arm_rot_l	elbow_flex_l	pro_sup_l	wrist_flex_l	wrist_dev_l
24.1	0.820996	1.43149	0.810769	0.764221	-0.438339	0.968867	0.149568	0.112676	-0.252508	0.245082	0.111633	0	0	0.0479613	-0.102358	-0.132845	0.0585122	0.084167	0	0	-0.0048927	0.148088	-0.0133317	0.365671	-0.180732	0.285137	1.62095	1.5708	0	0	0.47696	-0.223668	0.0149405	1.30563	0.85124	0	0
24.11	0.823255	1.43261	0.81019	0.764462	-0.439548	0.96891	0.150241	0.111977	-0.254083	0.245945	0.11162	0	0	0.0490092	-0.102042	-0.131853	0.05926	0.0837482	0	0	-0.00610759	0.147929	-0.0132309	0.370943	-0.183771	0.288467	1.62028	1.5708	0	0	0.48067	-0.224994	0.0207826	1.30551	0.850448	0	0
24.12	0.826841	1.43376	0.807915	0.76474	-0.44067	0.968953	0.150443	0.111465	-0.255245	0.246402	0.111575	0	0	0.0499636	-0.101946	-0.131584	0.0603771	0.0840141	0	0	-0.00737233	0.147909	-0.0127937	0.37598	-0.186848	0.291653	1.61997	1.5708	0	0	0.483371	-0.22626	0.0258577	1.30651	0.849943	0	0
24.13	0.831616	1.43496	0.804403	0.764979	-0.441739	0.969024	0.150087	0.111068	-0.256129	0.246123	0.111167	0	0	0.0510759	-0.101989	-0.131277	0.0623942	0.0846334	0	0	-0.00873163	0.148104	-0.0124675	0.381336	-0.190247	0.295399	1.61933	1.5708	0	0	0.484838	-0.228043	0.0309154	1.3091	0.849396	0	0
24.14	0.836634	1.43623	0.800485	0.765227	-0.44274	0.969126	0.149601	0.110575	-0.257018	0.245885	0.110755	0	0	0.0524602	-0.102137	-0.131286	0.0653756	0.085932	0	0	-0.0100509	0.14826	-0.0123898	0.386497	-0.193237	0.298902	1.61825	1.5708	0	0	0.484791	-0.230343	0.0345212	1.31452	0.848801	0	0
24.15	0.841586	1.43757	0.796379	0.76548	-0.443681	0.969243	0.14921	0.109879	-0.257982	0.246164	0.11078	0	0	0.0541269	-0.102289	-0.131391	0.0693616	0.0879885	0	0	-0.0113756	0.148344	-0.0123421	0.391173	-0.196073	0.3021	1.61749	1.5708	0	0	0.483474	-0.232708	0.0356855	1.323	0.848534	0	0
24.16	0.846562	1.43904	0.792143	0.7657	-0.444549	0.969357	0.1488	0.108923	-0.259033	0.246869	0.11096	0	0	0.056278	-0.102455	-0.132007	0.0748583	0.0913554	0	0	-0.0127431	0.148278	-0.0122598	0.394663	-0.199169	0.304681	1.61822	1.5708	0	0	0.481353	-0.234928	0.0363394	1.33256	0.848548	0	0
24.17	0.851203	1.44052	0.788069	0.765895	-0.44533	0.969455	0.148252	0.107847	-0.260375	0.247389	0.110643	0	0	0.0591169	-0.102797	-0.13323	0.0819507	0.0956241	0	0	-0.0139541	0.148184	-0.0119194	0.397429	-0.202223	0.306328	1.61921	1.5708	0	0	0.477858	-0.237823	0.0396468	1.34148	0.848226	0	0
24.18	0.856657	1.44189	0.783114	0.766043	-0.44607	0.96956	0.147512	0.106905	-0.261521	0.247622	0.110427	0	0	0.0627424	-0.103423	-0.134526	0.0906764	0.100444	0	0	-0.0151781	0.148352	-0.0112776	0.399529	-0.205426	0.307515	1.62099	1.5708	0	0	0.472855	-0.241515	0.0485923	1.34717	0.846122	0	0
24.19	0.863614	1.44328	0.77649	0.76616	-0.446745	0.969665	0.146483	0.10608	-0.262617	0.247741	0.110405	0	0	0.0669829	-0.104264	-0.135981	0.101107	0.105975	0	0	-0.0165208	0.148739	-0.00993557	0.40045	-0.209255	0.308457	1.62525	1.5708	0	0	0.466683	-0.24549	0.0609157	1.35042	0.841475	0	0
24.2	0.908363	1.43062	0.732742	0.766003	-0.449529	0.971442	0.169556	0.107293	-0.317729	0.280584	0.110303	0	0	0.0813046	-0.123866	-0.162665	0.108933	0.10547	0	0	-0.0179408	0.166864	-0.00872489	0.404665	-0.216253	0.311043	1.62852	1.5708	0	0	0.460163	-0.242336	0.06299	1.34941	0.835838	0	0
24.21	0.878901	1.44662	0.761532	0.766459	-0.447881	0.969877	0.143925	0.104063	-0.265681	0.248534	0.110863	0	0	0.077634	-0.106201	-0.139726	0.127987	0.118432	0	0	-0.0172239	0.14867	0.000419617	0.390936	-0.221251	0.302186	1.64442	1.5708	0	0	0.464776	-0.287531	0.282544	1.27187	1.5708	0	0
24.22	0.885594	1.44816	0.754859	0.766526	-0.448379	0.970023	0.142869	0.102929	-0.267312	0.249145	0.111278	0	0	0.0838222	-0.107177	-0.140561	0.142884	0.123878	0	0	-0.0188494	0.148759	0.00146443	0.386484	-0.22591	0.302181	1.65552	1.5708	0	0	0.45257	-0.289812	0.277119	1.28547	1.5708	0	0
24.23	0.894039	1.44962	0.746131	0.766553	-0.448816	0.970175	0.141636	0.102084	-0.26854	0.249649	0.111594	0	0	0.0905267	-0.108539	-0.142433	0.159175	0.130082	0	0	-0.0208505	0.149065	0.00226595	0.380996	-0.230801	0.302077	1.6675	1.5708	0	0	0.437299	-0.292305	0.269603	1.30257	1.5708	0	0
24.24	0.906531	1.4518	0.733526	0.766441	-0.449132	0.970367	0.139114	0.101222	-0.268211	0.24952	0.111492	0	0	0.0964483	-0.109616	-0.144462	0.175771	0.136249	0	0	-0.0236462	0.149196	0.00246241	0.374783	-0.235813	0.302027	1.67927	1.5708	0	0	0.419834	-0.294762	0.260131	1.32082	1.5708	0	0
24.25	0.919589	1.45432	0.720192	0.766278	-0.449389	0.970588	0.136216	0.100126	-0.267573	0.249252	0.111172	0	0	0.102277	-0.110439	-0.14658	0.193019	0.141727	0	0	-0.0266961	0.149021	0.0024142	0.367743	-0.240787	0.301976	1.69074	1.5708	0	0	0.400915	-0.297123	0.24944	1.34012	1.5708	0	0
24.26	0.933048	1.45692	0.706021	0.766128	-0.449567	0.970831	0.133207	0.0989181	-0.26712	0.24905	0.110872	0	0	0.108096	-0.11131	-0.149365	0.210746	0.146395	0	0	-0.0298422	0.148619	0.00252554	0.359448	-0.245736	0.301894	1.70231	1.5708	0	0	0.380782	-0.299358	0.238173	1.36007	1.5708	0	0
24.27	0.948715	1.45961	0.689188	0.765943	-0.449668	0.971107	0.129789	0.0977333	-0.266307	0.248679	0.110572	0	0	0.113495	-0.112295	-0.153303	0.228147	0.150256	0	0	-0.0333621	0.148177	0.00296444	0.349797	-0.251011	0.302043	1.71455	1.5708	0	0	0.359752	-0.301254	0.226544	1.38	1.5708	0	0
24.28	0.964544	1.46245	0.671806	0.765716	-0.449714	0.971417	0.126235	0.0962894	-0.265171	0.248335	0.110408	0	0	0.118635	-0.113246	-0.158512	0.245334	0.153498	0	0	-0.0370585	0.147489	0.00350922	0.339138	-0.256452	0.302585	1.7267	1.5708	0	0	0.337434	-0.303138	0.214148	1.39875	1.5708	0	0
24.29	0.979025	1.46525	0.655342	0.765459	-0.449717	0.971738	0.122837	0.0946486	-0.263747	0.247995	0.110242	0	0	0.123499	-0.114082	-0.16444	0.261747	0.156218	0	0	-0.0405629	0.146568	0.00427454	0.327588	-0.262119	0.303471	1.73822	1.5708	0	0	0.314627	-0.304742	0.202554	1.4169	1.5708	0	0
